<svg xmlns="http://www.w3.org/2000/svg" viewBox="0 0 110 110">
  <defs>
    <linearGradient id="pyYellow" x1="0%" y1="0%" x2="100%" y2="100%">
      <stop offset="0%" stop-color="#FFE873"/>
      <stop offset="100%" stop-color="#FFD43B"/>
    </linearGradient>
    <linearGradient id="pyBlue" x1="0%" y1="0%" x2="100%" y2="100%">
      <stop offset="0%" stop-color="#5A9FD4"/>
      <stop offset="100%" stop-color="#306998"/>
    </linearGradient>
  </defs>
  <path fill="url(#pyBlue)" d="M54.3 3.6c-4.1 0-8 .3-11.5.9-10.3 1.8-12.2 5.5-12.2 12.5v9.2h24.2v3.1H30.6h-9c-7 0-13.2 4.2-15.1 12.2-2.2 9.2-2.3 15 0 24.6 1.7 7.1 5.8 12.2 12.9 12.2h8.3V66.1c0-8 6.9-15.1 15.1-15.1h24.2c6.7 0 12.2-5.5 12.2-12.2V15c0-6.5-5.5-11.4-12.2-12.5-4.2-.7-8.5-1-12.7-.9zm-13.1 7.4c2.5 0 4.5 2.1 4.5 4.6 0 2.5-2 4.6-4.5 4.6-2.5 0-4.5-2.1-4.5-4.6 0-2.5 2-4.6 4.5-4.6z"/>
  <path fill="url(#pyYellow)" d="M82.2 28.4v11.7c0 8.4-7 15.3-15.1 15.3H42.9c-6.6 0-12.2 5.6-12.2 12.2v22.9c0 6.5 5.7 10.4 12.2 12.2 7.6 2.2 15 2.6 24.2 0 6.1-1.8 12.2-5.3 12.2-12.2V81H55.1v-3.1h24.2h12.2c7 0 9.6-4.9 12.2-12.2 2.7-7.5 2.5-14.8 0-24.6-1.8-7-5.4-12.2-12.2-12.2h-9.3zm-13.6 58.1c2.5 0 4.5 2.1 4.5 4.6 0 2.5-2 4.6-4.5 4.6-2.5 0-4.5-2.1-4.5-4.6 0-2.5 2-4.6 4.5-4.6z"/>
</svg>
